<svg width="36" height="36" viewBox="0 0 36 36" fill="none" xmlns="http://www.w3.org/2000/svg">
<rect width="36" height="36" rx="8" fill="white"/>
<g clip-path="url(#clip0_703_6531)">
<path d="M30 9.99982H6V26H30V9.99982Z" fill="#F0F0F0"/>
<path d="M30 12.0004H6V14.0002H30V12.0004Z" fill="#D80027"/>
<path d="M30 16.0006H6V18.0004H30V16.0006Z" fill="#D80027"/>
<path d="M30 20.0001H6V22H30V20.0001Z" fill="#D80027"/>
<path d="M30 24.0004H6V26.0002H30V24.0004Z" fill="#D80027"/>
<path d="M18 9.99982H6V18.6153H18V9.99982Z" fill="#2E52B2"/>
<path d="M10.6791 13.5301L10.4858 14.1247H9.86072L10.3665 14.4919L10.1733 15.0864L10.6791 14.7192L11.1846 15.0864L10.9914 14.4919L11.4972 14.1247H10.872L10.6791 13.5301Z" fill="#F0F0F0"/>
<path d="M10.872 16.2702L10.6791 15.6757L10.4858 16.2702H9.86072L10.3665 16.6375L10.1733 17.2321L10.6791 16.8648L11.1846 17.2321L10.9914 16.6375L11.4972 16.2702H10.872Z" fill="#F0F0F0"/>
<path d="M8.23012 16.2702L8.03714 15.6757L7.84388 16.2702H7.21875L7.72458 16.6375L7.53131 17.2321L8.03714 16.8648L8.54269 17.2321L8.34947 16.6375L8.8552 16.2702H8.23012Z" fill="#F0F0F0"/>
<path d="M8.03714 13.5301L7.84388 14.1247H7.21875L7.72458 14.4919L7.53131 15.0864L8.03714 14.7192L8.54269 15.0864L8.34947 14.4919L8.8552 14.1247H8.23012L8.03714 13.5301Z" fill="#F0F0F0"/>
<path d="M10.6791 11.3845L10.4858 11.9791H9.86072L10.3665 12.3464L10.1733 12.9409L10.6791 12.5736L11.1846 12.9409L10.9914 12.3464L11.4972 11.9791H10.872L10.6791 11.3845Z" fill="#F0F0F0"/>
<path d="M8.03714 11.3845L7.84388 11.9791H7.21875L7.72458 12.3464L7.53131 12.9409L8.03714 12.5736L8.54269 12.9409L8.34947 12.3464L8.8552 11.9791H8.23012L8.03714 11.3845Z" fill="#F0F0F0"/>
<path d="M13.321 13.5301L13.1278 14.1247H12.5027L13.0085 14.4919L12.8153 15.0864L13.321 14.7192L13.8266 15.0864L13.6334 14.4919L14.1392 14.1247H13.5141L13.321 13.5301Z" fill="#F0F0F0"/>
<path d="M13.5141 16.2702L13.321 15.6757L13.1278 16.2702H12.5027L13.0085 16.6375L12.8153 17.2321L13.321 16.8648L13.8266 17.2321L13.6334 16.6375L14.1392 16.2702H13.5141Z" fill="#F0F0F0"/>
<path d="M16.156 16.2702L15.963 15.6757L15.7697 16.2702H15.1447L15.6504 16.6375L15.4572 17.2321L15.963 16.8648L16.4685 17.2321L16.2753 16.6375L16.7811 16.2702H16.156Z" fill="#F0F0F0"/>
<path d="M15.963 13.5301L15.7697 14.1247H15.1447L15.6504 14.4919L15.4572 15.0864L15.963 14.7192L16.4685 15.0864L16.2753 14.4919L16.7811 14.1247H16.156L15.963 13.5301Z" fill="#F0F0F0"/>
<path d="M13.321 11.3845L13.1278 11.9791H12.5027L13.0085 12.3464L12.8153 12.9409L13.321 12.5736L13.8266 12.9409L13.6334 12.3464L14.1392 11.9791H13.5141L13.321 11.3845Z" fill="#F0F0F0"/>
<path d="M15.963 11.3845L15.7697 11.9791H15.1447L15.6504 12.3464L15.4572 12.9409L15.963 12.5736L16.4685 12.9409L16.2753 12.3464L16.7811 11.9791H16.156L15.963 11.3845Z" fill="#F0F0F0"/>
</g>
<defs>
<clipPath id="clip0_703_6531">
<rect x="6" y="9.99982" width="24" height="16.0004" rx="2" fill="white"/>
</clipPath>
</defs>
</svg>
