<svg width="378" height="240" viewBox="0 0 378 240" fill="none" xmlns="http://www.w3.org/2000/svg">
<path d="M206.919 75.9941C220.381 75.9941 230.079 64.2693 230.079 51.495C230.079 38.7207 220.526 26.6701 206.919 26.6701C193.312 26.6701 183.976 38.1778 183.976 51.495C183.976 64.8121 193.529 75.9941 206.919 75.9941ZM234.494 83.0507C228.016 94.0157 217.124 102.99 199.247 102.99C172.106 102.99 151.66 78.0206 151.66 51.495C151.66 24.9693 172.106 -0.000305176 199.247 -0.000305176C210.61 -0.000305176 220.055 3.90798 227.22 10.0599V1.77289H259.391V70.0955H270.211V100.855H253.963C243.722 100.855 235.833 92.8215 234.494 83.0507Z" fill="#FFD300"/>
<path d="M206.919 183.869C193.529 183.869 183.976 172.579 183.976 159.37C183.976 146.161 193.385 134.545 206.919 134.545C220.453 134.545 230.079 146.487 230.079 159.37C230.079 172.253 220.381 183.869 206.919 183.869ZM234.494 190.926C235.833 200.624 243.758 208.73 253.963 208.73H270.211V177.971H259.391V109.648H227.22V117.935C220.091 111.783 210.61 107.875 199.247 107.875C172.106 107.875 151.66 132.772 151.66 159.37C151.66 185.968 172.106 210.865 199.247 210.865C217.124 210.865 228.053 201.927 234.494 190.926Z" fill="#FFD300"/>
<path d="M326.446 63.1505H327.134L343.056 91.8837C346.747 97.3119 352.972 100.894 360.028 100.894H377.398V69.7006H366.18L354.962 51.3533L366.18 33.0061L377.398 32.9337V1.81219H360.028C352.972 1.81219 346.711 5.43097 343.056 10.7506L327.134 39.4837H326.446L310.596 10.7506C306.905 5.39478 300.68 1.81219 293.624 1.81219H276.181V32.9337L287.472 33.0061L298.69 51.3533L287.472 69.7006H276.181V100.894H293.624C300.68 100.894 306.941 97.2757 310.596 91.8837L326.446 63.1505Z" fill="#FFD300"/>
<path d="M322.939 165.597H323.373L341.105 122.461C344.036 115.007 351.418 109.687 360.067 109.687H377.437V140.809H366.219L332.528 223.064C328.692 233.45 318.487 240.579 307.124 239.963H283.458V208.769H307.884L280.056 140.809H265.4V109.687H286.208C294.857 109.687 302.203 115.007 305.243 122.461L322.902 165.597H322.939Z" fill="#FFD300"/>
<path d="M75.593 109.687C69.1154 109.687 63.651 113.813 61.4436 120.001L47.7645 161.182H46.6427L36.9444 125.248C34.7007 116.31 26.6309 109.687 17.1135 109.687H0.9375V140.809H10.9253L26.7032 195.09C29.0193 203.522 37.3787 209.529 46.7151 208.697C54.7488 207.865 61.2264 202.219 63.253 194.873L75.593 158.866L87.9331 194.873C90.0319 202.256 96.4372 207.865 104.471 208.697C113.807 209.529 122.203 203.522 124.555 195.09L140.333 140.809H150.248V109.687H134.073C124.519 109.687 116.485 116.31 114.242 125.248L104.616 161.182H103.421L89.7424 120.001C87.6435 113.849 82.0706 109.687 75.593 109.687Z" fill="#FFD300"/>
<path d="M75.593 100.852C69.1154 100.852 63.651 96.7263 61.4436 90.5381L47.7645 49.3564H46.6427L36.9444 85.2909C34.7007 94.2293 26.6309 100.852 17.1135 100.852H0.9375V69.6578H10.9253L26.7032 15.4484C29.0193 6.94427 37.3787 1.00947 46.7151 1.84179C54.7488 2.60174 61.2264 8.31941 63.253 15.6655L75.593 51.6001L87.9331 15.6655C90.0319 8.28322 96.4372 2.60174 104.471 1.84179C113.807 1.00947 122.203 6.94427 124.555 15.4484L140.333 69.6578H150.248V100.852H134.073C124.519 100.852 116.485 94.2293 114.242 85.2909L104.616 49.3564H103.421L89.7424 90.5381C87.6435 96.6901 82.0706 100.852 75.593 100.852Z" fill="#FFD300"/>
</svg>
