<svg width="54" height="34" viewBox="0 0 54 34" fill="none" xmlns="http://www.w3.org/2000/svg">
<path d="M29.1805 10.7659C31.0876 10.7659 32.4616 9.10491 32.4616 7.29521C32.4616 5.4855 31.1081 3.77833 29.1805 3.77833C27.2529 3.77833 25.9302 5.4086 25.9302 7.29521C25.9302 9.18181 27.2837 10.7659 29.1805 10.7659ZM33.087 11.7656C32.1693 13.319 30.6262 14.5904 28.0937 14.5904C24.2487 14.5904 21.3521 11.053 21.3521 7.29521C21.3521 3.53738 24.2487 0 28.0937 0C29.7034 0 31.0415 0.553676 32.0566 1.4252V0.251204H36.6141V9.93029H38.147V14.2879H35.8451C34.3943 14.2879 33.2767 13.1498 33.087 11.7656Z" fill="white"/>
<path d="M29.1805 26.0483C27.2837 26.0483 25.9302 24.4488 25.9302 22.5776C25.9302 20.7064 27.2632 19.0607 29.1805 19.0607C31.0979 19.0607 32.4616 20.7525 32.4616 22.5776C32.4616 24.4027 31.0876 26.0483 29.1805 26.0483ZM33.087 27.048C33.2767 28.422 34.3994 29.5704 35.8451 29.5704H38.147V25.2127H36.6141V15.5336H32.0566V16.7076C31.0466 15.8361 29.7034 15.2824 28.0937 15.2824C24.2487 15.2824 21.3521 18.8095 21.3521 22.5776C21.3521 26.3457 24.2487 29.8728 28.0937 29.8728C30.6262 29.8728 32.1745 28.6065 33.087 27.048Z" fill="white"/>
<path d="M46.1143 8.94606H46.2117L48.4674 13.0166C48.9903 13.7856 49.8721 14.2931 50.8718 14.2931H53.3326V9.87398H51.7433L50.1541 7.27478L51.7433 4.67557L53.3326 4.66532V0.256409H50.8718C49.8721 0.256409 48.9852 0.769071 48.4674 1.52269L46.2117 5.59324H46.1143L43.8688 1.52269C43.3459 0.763945 42.4641 0.256409 41.4644 0.256409H38.9934V4.66532L40.5929 4.67557L42.1821 7.27478L40.5929 9.87398H38.9934V14.2931H41.4644C42.4641 14.2931 43.351 13.7805 43.8688 13.0166L46.1143 8.94606Z" fill="white"/>
<path d="M45.6167 23.4595H45.6782L48.1903 17.3485C48.6055 16.2924 49.6514 15.5388 50.8766 15.5388H53.3374V19.9477H51.7482L46.9753 31.6006C46.4318 33.0719 44.9861 34.0819 43.3764 33.9947H40.0235V29.5756H43.484L39.5416 19.9477H37.4653V15.5388H40.4132C41.6384 15.5388 42.6791 16.2924 43.1098 17.3485L45.6116 23.4595H45.6167Z" fill="white"/>
<path d="M10.5763 15.5388C9.65859 15.5388 8.88447 16.1233 8.57174 16.9999L6.63387 22.834H6.47495L5.10101 17.7433C4.78315 16.477 3.63991 15.5388 2.29161 15.5388H0V19.9477H1.41495L3.65017 27.6377C3.97827 28.8322 5.16253 29.6832 6.4852 29.5653C7.62331 29.4474 8.54098 28.6476 8.82807 27.6069L10.5763 22.5059L12.3244 27.6069C12.6218 28.6528 13.5292 29.4474 14.6673 29.5653C15.99 29.6832 17.1794 28.8322 17.5126 27.6377L19.7478 19.9477H21.1525V15.5388H18.8609C17.5075 15.5388 16.3694 16.477 16.0515 17.7433L14.6878 22.834H14.5186L12.5808 16.9999C12.2834 16.1284 11.4939 15.5388 10.5763 15.5388Z" fill="white"/>
<path d="M10.5763 14.2877C9.65859 14.2877 8.88447 13.7032 8.57174 12.8266L6.63387 6.99248H6.47495L5.10101 12.0832C4.78315 13.3495 3.63991 14.2877 2.29161 14.2877H0V9.86852H1.41495L3.65017 2.18882C3.97827 0.984058 5.16253 0.14329 6.4852 0.261203C7.62331 0.368862 8.54098 1.17887 8.82807 2.21958L10.5763 7.31033L12.3244 2.21958C12.6218 1.17374 13.5292 0.368862 14.6673 0.261203C15.99 0.14329 17.1794 0.984058 17.5126 2.18882L19.7478 9.86852H21.1525V14.2877H18.8609C17.5075 14.2877 16.3694 13.3495 16.0515 12.0832L14.6878 6.99248H14.5186L12.5808 12.8266C12.2834 13.6981 11.4939 14.2877 10.5763 14.2877Z" fill="white"/>
</svg>
