<svg width="36" height="36" viewBox="0 0 36 36" fill="none" xmlns="http://www.w3.org/2000/svg">
<rect width="36" height="36" rx="8" fill="white"/>
<g clip-path="url(#clip0_703_6568)">
<path d="M6 14.6667H30V15.6667H6V14.6667ZM6 20.3334H30V21.3334H6V20.3334Z" fill="#CE1126"/>
<path d="M30 23.7121V20.7576H6V23.7121C6 24.4957 6.28095 25.2472 6.78105 25.8013C7.28115 26.3554 7.95942 26.6667 8.66667 26.6667H27.3333C28.0406 26.6667 28.7189 26.3554 29.219 25.8013C29.719 25.2472 30 24.4957 30 23.7121Z" fill="#1EB53A"/>
<path d="M6 18V20.3334H30V15.6667H6V18Z" fill="#EEEEEE"/>
<path d="M6 12.2897V15.2461H30V12.2897C30 11.5056 29.719 10.7536 29.219 10.1992C28.7189 9.64479 28.0406 9.33331 27.3333 9.33331H8.66667C7.95942 9.33331 7.28115 9.64479 6.78105 10.1992C6.28095 10.7536 6 11.5056 6 12.2897Z" fill="#0099B5"/>
<path d="M8.79998 12.1067C8.80004 11.6152 8.97415 11.1396 9.29143 10.7642C9.60872 10.3888 10.0487 10.1379 10.5333 10.056C10.235 10.0054 9.92918 10.0204 9.63726 10.1002C9.34534 10.1799 9.07433 10.3223 8.84314 10.5176C8.61195 10.7128 8.42615 10.9562 8.2987 11.2306C8.17125 11.5051 8.10522 11.8041 8.10522 12.1067C8.10522 12.4093 8.17125 12.7082 8.2987 12.9827C8.42615 13.2572 8.61195 13.5005 8.84314 13.6958C9.07433 13.891 9.34534 14.0335 9.63726 14.1132C9.92918 14.1929 10.235 14.208 10.5333 14.1573C10.0487 14.0754 9.60872 13.8245 9.29143 13.4492C8.97415 13.0738 8.80004 12.5982 8.79998 12.1067ZM11.922 13.642L11.8286 13.3547L11.7353 13.642H11.4326L11.6773 13.82L11.584 14.1073L11.8286 13.9293L12.0726 14.1073L11.9793 13.82L12.224 13.642H11.922ZM13.7233 13.642L13.63 13.3547L13.5366 13.642H13.2346L13.4793 13.82L13.386 14.1073L13.63 13.9293L13.8746 14.1073L13.7813 13.82L14.026 13.642H13.7233ZM13.63 11.6907L13.5366 11.978H13.2346L13.4793 12.156L13.386 12.4433L13.63 12.2653L13.8746 12.4433L13.7813 12.156L14.026 11.978H13.7233L13.63 11.6907ZM15.5253 13.642L15.432 13.3547L15.3386 13.642H15.0366L15.2806 13.82L15.1873 14.1073L15.432 13.9293L15.6766 14.1073L15.5833 13.82L15.8273 13.642H15.5253ZM15.432 11.6907L15.3386 11.978H15.0366L15.2806 12.156L15.1873 12.4433L15.432 12.2653L15.6766 12.4433L15.5833 12.156L15.8273 11.978H15.5253L15.432 11.6907ZM15.432 10.0267L15.3386 10.314H15.0366L15.2806 10.492L15.1873 10.7793L15.432 10.6013L15.6766 10.7793L15.5833 10.492L15.8273 10.314H15.5253L15.432 10.0267ZM17.3273 13.642L17.234 13.3547L17.1406 13.642H16.838L17.0826 13.82L16.9893 14.1073L17.234 13.9293L17.478 14.1073L17.3846 13.82L17.6293 13.642H17.3273ZM17.234 11.6907L17.1406 11.978H16.838L17.0826 12.156L16.9893 12.4433L17.234 12.2653L17.478 12.4433L17.3846 12.156L17.6293 11.978H17.3273L17.234 11.6907ZM17.234 10.0267L17.1406 10.314H16.838L17.0826 10.492L16.9893 10.7793L17.234 10.6013L17.478 10.7793L17.3846 10.492L17.6293 10.314H17.3273L17.234 10.0267ZM19.1286 13.642L19.0353 13.3547L18.942 13.642H18.64L18.8846 13.82L18.7913 14.1073L19.0353 13.9293L19.28 14.1073L19.1866 13.82L19.4313 13.642H19.1286ZM19.0353 11.6907L18.942 11.978H18.64L18.8846 12.156L18.7913 12.4433L19.0353 12.2653L19.28 12.4433L19.1866 12.156L19.4313 11.978H19.1286L19.0353 11.6907ZM19.0353 10.0267L18.942 10.314H18.64L18.8846 10.492L18.7913 10.7793L19.0353 10.6013L19.28 10.7793L19.1866 10.492L19.4313 10.314H19.1286L19.0353 10.0267Z" fill="white"/>
</g>
<defs>
<clipPath id="clip0_703_6568">
<rect width="24" height="24" fill="white" transform="translate(6 6)"/>
</clipPath>
</defs>
</svg>
